<svg width="12" height="16" viewBox="0 0 12 16" fill="none" xmlns="http://www.w3.org/2000/svg">
<path d="M5.6875 8C5.64583 7.85417 5.61458 7.66667 5.59375 7.4375C5.57292 7.1875 5.5625 6.97917 5.5625 6.8125C5.5625 6.625 5.58333 6.53125 5.625 6.53125C5.75 6.53125 5.8125 6.73958 5.8125 7.15625C5.8125 7.57292 5.77083 7.85417 5.6875 8ZM5.625 9.46875C5.91667 10.0104 6.28125 10.4375 6.71875 10.75C6.46875 10.7917 5.8125 11.0208 4.75 11.4375C5.02083 10.9375 5.3125 10.2812 5.625 9.46875ZM2.6875 13.375C2.77083 13.1458 3.13542 12.7292 3.78125 12.125C3.65625 12.3333 3.53125 12.5208 3.40625 12.6875C3.28125 12.8333 3.17708 12.9583 3.09375 13.0625C3.01042 13.1458 2.9375 13.2188 2.875 13.2812C2.8125 13.3229 2.76042 13.3542 2.71875 13.375C2.69792 13.375 2.6875 13.375 2.6875 13.375ZM7.75 5H12V15.25C12 15.4583 11.9271 15.6354 11.7812 15.7812C11.6354 15.9271 11.4583 16 11.25 16H0.75C0.541667 16 0.364583 15.9271 0.21875 15.7812C0.0729167 15.6354 0 15.4583 0 15.25V0.75C0 0.541667 0.0729167 0.364583 0.21875 0.21875C0.364583 0.0729167 0.541667 0 0.75 0H7V4.25C7 4.45833 7.07292 4.63542 7.21875 4.78125C7.36458 4.92708 7.54167 5 7.75 5ZM7.5 10.375C6.89583 10 6.44792 9.4375 6.15625 8.6875C6.40625 7.70833 6.47917 7.04167 6.375 6.6875C6.3125 6.39583 6.16667 6.19792 5.9375 6.09375C5.72917 5.96875 5.51042 5.94792 5.28125 6.03125C5.05208 6.11458 4.91667 6.26042 4.875 6.46875C4.75 6.92708 4.83333 7.72917 5.125 8.875C4.64583 10 4.21875 10.8958 3.84375 11.5625C3.23958 11.8542 2.73958 12.1979 2.34375 12.5938C1.94792 12.9896 1.875 13.3542 2.125 13.6875C2.29167 13.8958 2.52083 14 2.8125 14C3.33333 14 3.96875 13.3542 4.71875 12.0625C6.01042 11.6458 6.83333 11.4062 7.1875 11.3438C7.9375 11.7396 8.60417 11.9375 9.1875 11.9375C9.60417 11.9375 9.86458 11.7604 9.96875 11.4062C10.0729 11.0521 10.0208 10.7812 9.8125 10.5938C9.47917 10.2812 8.70833 10.2083 7.5 10.375ZM11.7812 3.28125C11.9271 3.42708 12 3.60417 12 3.8125V4H8V0H8.1875C8.39583 0 8.57292 0.0729167 8.71875 0.21875L11.7812 3.28125ZM9.46875 11.25C9.34375 11.3958 8.89583 11.3021 8.125 10.9688C9.02083 10.9479 9.46875 11.0417 9.46875 11.25Z" fill="#BF212E"/>
</svg>
