<svg width="21" height="20" viewBox="0 0 21 20" fill="none" xmlns="http://www.w3.org/2000/svg">
<path d="M0.75 4.1875C0.53125 4.1875 0.34375 4.125 0.1875 4C0.0625 3.84375 0 3.65625 0 3.4375V1.5625C0 1.34375 0.0625 1.17188 0.1875 1.04688C0.34375 0.890625 0.53125 0.8125 0.75 0.8125H20.25C20.4688 0.8125 20.6406 0.890625 20.7656 1.04688C20.9219 1.17188 21 1.34375 21 1.5625V3.4375C21 3.65625 20.9219 3.84375 20.7656 4C20.6406 4.125 20.4688 4.1875 20.25 4.1875H0.75ZM0.75 11.6875C0.53125 11.6875 0.34375 11.625 0.1875 11.5C0.0625 11.3438 0 11.1562 0 10.9375V9.0625C0 8.84375 0.0625 8.67188 0.1875 8.54688C0.34375 8.39062 0.53125 8.3125 0.75 8.3125H20.25C20.4688 8.3125 20.6406 8.39062 20.7656 8.54688C20.9219 8.67188 21 8.84375 21 9.0625V10.9375C21 11.1562 20.9219 11.3438 20.7656 11.5C20.6406 11.625 20.4688 11.6875 20.25 11.6875H0.75ZM0.75 19.1875C0.53125 19.1875 0.34375 19.125 0.1875 19C0.0625 18.8438 0 18.6562 0 18.4375V16.5625C0 16.3438 0.0625 16.1719 0.1875 16.0469C0.34375 15.8906 0.53125 15.8125 0.75 15.8125H20.25C20.4688 15.8125 20.6406 15.8906 20.7656 16.0469C20.9219 16.1719 21 16.3438 21 16.5625V18.4375C21 18.6562 20.9219 18.8438 20.7656 19C20.6406 19.125 20.4688 19.1875 20.25 19.1875H0.75Z" fill="#323232"/>
</svg>
